{
    "asset" : {
        "generator" : "Khronos glTF Blender I/O v1.8.19",
        "version" : "2.0"
    },
    "scene" : 1,
    "scenes" : [
        {
            "name" : "bake"
        },
        {
            "name" : "cartridge done",
            "nodes" : [
                0
            ]
        },
        {
            "name" : "cartridge low"
        }
    ],
    "nodes" : [
        {
            "mesh" : 0,
            "name" : "cartridge low",
            "translation" : [
                -0.02210250496864319,
                0.09962286055088043,
                0.03886641561985016
            ]
        }
    ],
    "materials" : [
        {
            "doubleSided" : true,
            "name" : "main",
            "normalTexture" : {
                "index" : 0
            },
            "pbrMetallicRoughness" : {
                "baseColorTexture" : {
                    "index" : 1
                },
                "metallicRoughnessTexture" : {
                    "index" : 2
                }
            }
        },
        {
            "doubleSided" : false,
            "emissiveFactor" : [
                1,
                1,
                1
            ],
            "emissiveTexture" : {
                "index" : 3
            },
            "name" : "wyswietlacz",
            "pbrMetallicRoughness" : {
                "baseColorTexture" : {
                    "index" : 4
                },
                "metallicFactor" : 0
            }
        },
        {
            "alphaMode" : "BLEND",
            "doubleSided" : true,
            "name" : "szklo",
            "pbrMetallicRoughness" : {
                "baseColorFactor" : [
                    0.800000011920929,
                    0.800000011920929,
                    0.800000011920929,
                    0.27272725105285645
                ],
                "metallicFactor" : 0,
                "roughnessFactor" : 0
            }
        },
        {
            "alphaMode" : "BLEND",
            "doubleSided" : true,
            "name" : "zlacze szklo",
            "normalTexture" : {
                "index" : 5
            },
            "pbrMetallicRoughness" : {
                "baseColorTexture" : {
                    "index" : 6
                },
                "metallicRoughnessTexture" : {
                    "index" : 7
                }
            }
        },
        {
            "alphaMode" : "BLEND",
            "doubleSided" : true,
            "name" : "hash hill",
            "normalTexture" : {
                "index" : 8
            },
            "pbrMetallicRoughness" : {
                "baseColorTexture" : {
                    "index" : 9
                },
                "metallicRoughnessTexture" : {
                    "index" : 10
                }
            }
        }
    ],
    "meshes" : [
        {
            "name" : "cartridge low mesh",
            "primitives" : [
                {
                    "attributes" : {
                        "POSITION" : 0,
                        "NORMAL" : 1,
                        "TEXCOORD_0" : 2,
                        "TEXCOORD_1" : 3
                    },
                    "indices" : 4,
                    "material" : 0
                },
                {
                    "attributes" : {
                        "POSITION" : 5,
                        "NORMAL" : 6,
                        "TEXCOORD_0" : 7,
                        "TEXCOORD_1" : 8
                    },
                    "indices" : 9,
                    "material" : 1
                },
                {
                    "attributes" : {
                        "POSITION" : 10,
                        "NORMAL" : 11,
                        "TEXCOORD_0" : 12,
                        "TEXCOORD_1" : 13
                    },
                    "indices" : 14,
                    "material" : 2
                },
                {
                    "attributes" : {
                        "POSITION" : 15,
                        "NORMAL" : 16,
                        "TEXCOORD_0" : 17,
                        "TEXCOORD_1" : 18
                    },
                    "indices" : 19,
                    "material" : 3
                },
                {
                    "attributes" : {
                        "POSITION" : 20,
                        "NORMAL" : 21,
                        "TEXCOORD_0" : 22,
                        "TEXCOORD_1" : 23
                    },
                    "indices" : 24,
                    "material" : 4
                }
            ]
        }
    ],
    "textures" : [
        {
            "sampler" : 0,
            "source" : 0
        },
        {
            "sampler" : 0,
            "source" : 1
        },
        {
            "sampler" : 0,
            "source" : 2
        },
        {
            "sampler" : 0,
            "source" : 3
        },
        {
            "sampler" : 0,
            "source" : 3
        },
        {
            "sampler" : 0,
            "source" : 0
        },
        {
            "sampler" : 0,
            "source" : 4
        },
        {
            "sampler" : 0,
            "source" : 2
        },
        {
            "sampler" : 0,
            "source" : 0
        },
        {
            "sampler" : 0,
            "source" : 4
        },
        {
            "sampler" : 0,
            "source" : 2
        }
    ],
    "images" : [
        {
            "mimeType" : "image/png",
            "name" : "cartridge low substance_UNIWERSALNY_NormalDithering2k",
            "uri" : "cartridge%20low%20substance_UNIWERSALNY_NormalDithering2k.png"
        },
        {
            "mimeType" : "image/jpeg",
            "name" : "cartridge low substance_zloty_BaseColor2k",
            "uri" : "cartridge%20low%20substance_zloty_BaseColor2k.jpg"
        },
        {
            "mimeType" : "image/png",
            "name" : "cartridge low substance_zloty_Metallic2k-cartridge low substance_zloty_Roughness2k",
            "uri" : "cartridge%20low%20substance_zloty_Metallic2k-cartridge%20low%20substance_zloty_Roughness2k.png"
        },
        {
            "mimeType" : "image/jpeg",
            "name" : "dopodmiany",
            "uri" : "dopodmiany.jpg"
        },
        {
            "mimeType" : "image/png",
            "name" : "cartridge low substance_zloty_BaseColor2k-cartridge low substance_zloty_Opacity2k",
            "uri" : "cartridge%20low%20substance_zloty_BaseColor2k-cartridge%20low%20substance_zloty_Opacity2k.png"
        }
    ],
    "accessors" : [
        {
            "bufferView" : 0,
            "componentType" : 5126,
            "count" : 14540,
            "max" : [
                0.9604155421257019,
                0.5580607652664185,
                0.010260428301990032
            ],
            "min" : [
                -1.0046205520629883,
                -0.713036835193634,
                -0.0735338106751442
            ],
            "type" : "VEC3"
        },
        {
            "bufferView" : 1,
            "componentType" : 5126,
            "count" : 14540,
            "type" : "VEC3"
        },
        {
            "bufferView" : 2,
            "componentType" : 5126,
            "count" : 14540,
            "type" : "VEC2"
        },
        {
            "bufferView" : 3,
            "componentType" : 5126,
            "count" : 14540,
            "type" : "VEC2"
        },
        {
            "bufferView" : 4,
            "componentType" : 5123,
            "count" : 42570,
            "type" : "SCALAR"
        },
        {
            "bufferView" : 5,
            "componentType" : 5126,
            "count" : 4,
            "max" : [
                0.6664811372756958,
                0.3748956322669983,
                2.1864073573851783e-07
            ],
            "min" : [
                -0.6664811372756958,
                -0.3748956322669983,
                -2.1864073573851783e-07
            ],
            "type" : "VEC3"
        },
        {
            "bufferView" : 6,
            "componentType" : 5126,
            "count" : 4,
            "type" : "VEC3"
        },
        {
            "bufferView" : 7,
            "componentType" : 5126,
            "count" : 4,
            "type" : "VEC2"
        },
        {
            "bufferView" : 8,
            "componentType" : 5126,
            "count" : 4,
            "type" : "VEC2"
        },
        {
            "bufferView" : 9,
            "componentType" : 5123,
            "count" : 6,
            "type" : "SCALAR"
        },
        {
            "bufferView" : 10,
            "componentType" : 5126,
            "count" : 152,
            "max" : [
                0.9483761787414551,
                0.5454909205436707,
                0.003259224584326148
            ],
            "min" : [
                -0.9970264434814453,
                -0.5501774549484253,
                -0.07637611776590347
            ],
            "type" : "VEC3"
        },
        {
            "bufferView" : 11,
            "componentType" : 5126,
            "count" : 152,
            "type" : "VEC3"
        },
        {
            "bufferView" : 12,
            "componentType" : 5126,
            "count" : 152,
            "type" : "VEC2"
        },
        {
            "bufferView" : 13,
            "componentType" : 5126,
            "count" : 152,
            "type" : "VEC2"
        },
        {
            "bufferView" : 14,
            "componentType" : 5123,
            "count" : 444,
            "type" : "SCALAR"
        },
        {
            "bufferView" : 15,
            "componentType" : 5126,
            "count" : 48,
            "max" : [
                0.6071596145629883,
                -0.6345463991165161,
                -0.03349529206752777
            ],
            "min" : [
                -0.6179895401000977,
                -0.7080552577972412,
                -0.04574718698859215
            ],
            "type" : "VEC3"
        },
        {
            "bufferView" : 16,
            "componentType" : 5126,
            "count" : 48,
            "type" : "VEC3"
        },
        {
            "bufferView" : 17,
            "componentType" : 5126,
            "count" : 48,
            "type" : "VEC2"
        },
        {
            "bufferView" : 18,
            "componentType" : 5126,
            "count" : 48,
            "type" : "VEC2"
        },
        {
            "bufferView" : 19,
            "componentType" : 5123,
            "count" : 108,
            "type" : "SCALAR"
        },
        {
            "bufferView" : 20,
            "componentType" : 5126,
            "count" : 40,
            "max" : [
                0.9483761787414551,
                0.5237511396408081,
                -0.06296753138303757
            ],
            "min" : [
                -0.9970264434814453,
                -0.5282487869262695,
                -0.06497816741466522
            ],
            "type" : "VEC3"
        },
        {
            "bufferView" : 21,
            "componentType" : 5126,
            "count" : 40,
            "type" : "VEC3"
        },
        {
            "bufferView" : 22,
            "componentType" : 5126,
            "count" : 40,
            "type" : "VEC2"
        },
        {
            "bufferView" : 23,
            "componentType" : 5126,
            "count" : 40,
            "type" : "VEC2"
        },
        {
            "bufferView" : 24,
            "componentType" : 5123,
            "count" : 84,
            "type" : "SCALAR"
        }
    ],
    "bufferViews" : [
        {
            "buffer" : 0,
            "byteLength" : 174480,
            "byteOffset" : 0
        },
        {
            "buffer" : 0,
            "byteLength" : 174480,
            "byteOffset" : 174480
        },
        {
            "buffer" : 0,
            "byteLength" : 116320,
            "byteOffset" : 348960
        },
        {
            "buffer" : 0,
            "byteLength" : 116320,
            "byteOffset" : 465280
        },
        {
            "buffer" : 0,
            "byteLength" : 85140,
            "byteOffset" : 581600
        },
        {
            "buffer" : 0,
            "byteLength" : 48,
            "byteOffset" : 666740
        },
        {
            "buffer" : 0,
            "byteLength" : 48,
            "byteOffset" : 666788
        },
        {
            "buffer" : 0,
            "byteLength" : 32,
            "byteOffset" : 666836
        },
        {
            "buffer" : 0,
            "byteLength" : 32,
            "byteOffset" : 666868
        },
        {
            "buffer" : 0,
            "byteLength" : 12,
            "byteOffset" : 666900
        },
        {
            "buffer" : 0,
            "byteLength" : 1824,
            "byteOffset" : 666912
        },
        {
            "buffer" : 0,
            "byteLength" : 1824,
            "byteOffset" : 668736
        },
        {
            "buffer" : 0,
            "byteLength" : 1216,
            "byteOffset" : 670560
        },
        {
            "buffer" : 0,
            "byteLength" : 1216,
            "byteOffset" : 671776
        },
        {
            "buffer" : 0,
            "byteLength" : 888,
            "byteOffset" : 672992
        },
        {
            "buffer" : 0,
            "byteLength" : 576,
            "byteOffset" : 673880
        },
        {
            "buffer" : 0,
            "byteLength" : 576,
            "byteOffset" : 674456
        },
        {
            "buffer" : 0,
            "byteLength" : 384,
            "byteOffset" : 675032
        },
        {
            "buffer" : 0,
            "byteLength" : 384,
            "byteOffset" : 675416
        },
        {
            "buffer" : 0,
            "byteLength" : 216,
            "byteOffset" : 675800
        },
        {
            "buffer" : 0,
            "byteLength" : 480,
            "byteOffset" : 676016
        },
        {
            "buffer" : 0,
            "byteLength" : 480,
            "byteOffset" : 676496
        },
        {
            "buffer" : 0,
            "byteLength" : 320,
            "byteOffset" : 676976
        },
        {
            "buffer" : 0,
            "byteLength" : 320,
            "byteOffset" : 677296
        },
        {
            "buffer" : 0,
            "byteLength" : 168,
            "byteOffset" : 677616
        }
    ],
    "samplers" : [
        {
            "magFilter" : 9729,
            "minFilter" : 9987
        }
    ],
    "buffers" : [
        {
            "byteLength" : 677784,
            "uri" : "cartridge zloty.bin"
        }
    ]
}
